<svg width="20" height="23" viewBox="0 0 20 23" fill="none" xmlns="http://www.w3.org/2000/svg">
<path d="M18.7511 8.84536L18.751 8.84538L11.3887 11.7795V4.61275C11.3892 4.18713 11.5172 3.77142 11.7562 3.41923C11.9952 3.06696 12.3343 2.7944 12.7297 2.63669L12.7299 2.63662L17.8683 0.58511L17.8685 0.585042C18.0491 0.512863 18.2446 0.486018 18.4379 0.506853C18.6313 0.527689 18.8166 0.595572 18.9777 0.704566L19.2568 0.292047L18.9777 0.704567C19.1388 0.813562 19.2707 0.960351 19.3619 1.1321L19.8035 0.897534L19.3619 1.1321C19.4532 1.30386 19.5009 1.49534 19.5011 1.68983V7.73767V7.73812C19.5013 7.97656 19.4299 8.20957 19.2962 8.40699C19.1625 8.6044 18.9726 8.75711 18.7511 8.84536Z" stroke="#824EDC"/>
<path d="M1.25003 8.84558L1.25008 8.8456L8.61241 11.7797L8.61242 4.61346C8.61242 4.61327 8.61241 4.61307 8.61241 4.61288C8.61165 4.18735 8.48355 3.77178 8.24461 3.41965C8.00557 3.06739 7.66656 2.79476 7.27122 2.63686C7.27119 2.63685 7.27116 2.63684 7.27113 2.63683L2.1314 0.585468C2.13136 0.585451 2.13131 0.585434 2.13127 0.585417C1.95068 0.513495 1.75522 0.486879 1.56198 0.507896C1.36868 0.528917 1.18348 0.596953 1.02254 0.70606C0.861607 0.815166 0.729839 0.962023 0.63875 1.1338C0.547671 1.30556 0.500034 1.497 0.5 1.69142L1.25003 8.84558ZM1.25003 8.84558C1.02871 8.75741 0.838934 8.60488 0.705227 8.40771C0.571531 8.21056 0.500042 7.97784 0.5 7.73963C0.5 7.73961 0.5 7.73959 0.5 7.73957M1.25003 8.84558L0.5 7.73957M0.5 7.73957V1.69148V7.73957Z" stroke="#824EDC"/>
<mask id="path-3-inside-1_183_2100" fill="white">
<path d="M0 22.8914L7.61343 19.259C8.06228 19.0456 8.44138 18.7093 8.70671 18.2891C8.97205 17.8688 9.11273 17.382 9.11241 16.885V12.517L0 16.8641V22.8914Z"/>
</mask>
<path d="M0 22.8914H-1V24.4765L0.430607 23.7939L0 22.8914ZM7.61343 19.259L7.1841 18.3558L7.18283 18.3564L7.61343 19.259ZM9.11241 16.885H8.11241L8.11241 16.8856L9.11241 16.885ZM9.11241 12.517H10.1124V10.932L8.68185 11.6145L9.11241 12.517ZM0 16.8641L-0.430563 15.9615L-1 16.2332V16.8641H0ZM0.430607 23.7939L8.04404 20.1615L7.18283 18.3564L-0.430607 21.9888L0.430607 23.7939ZM8.04276 20.1621C8.66248 19.8675 9.18591 19.4031 9.55226 18.823L7.86117 17.7552C7.69685 18.0154 7.46207 18.2237 7.1841 18.3558L8.04276 20.1621ZM9.55226 18.823C9.91861 18.2428 10.1128 17.5705 10.1124 16.8844L8.11241 16.8856C8.11261 17.1934 8.02549 17.4949 7.86117 17.7552L9.55226 18.823ZM10.1124 16.885V12.517H8.11241V16.885H10.1124ZM8.68185 11.6145L-0.430563 15.9615L0.430563 17.7666L9.54298 13.4196L8.68185 11.6145ZM-1 16.8641V22.8914H1V16.8641H-1Z" fill="#824EDC" mask="url(#path-3-inside-1_183_2100)"/>
<path d="M19.5011 22.0989L12.6012 18.8077L12.6011 18.8076C12.238 18.6345 11.9314 18.3621 11.7168 18.0218C11.5022 17.6816 11.3885 17.2875 11.3887 16.8853V16.885V13.3095L19.5011 17.1795V22.0989Z" stroke="#824EDC"/>
</svg>
