<svg width="20" height="24" viewBox="0 0 20 24" fill="none" xmlns="http://www.w3.org/2000/svg">
<path d="M18.7511 9.70028L18.751 9.7003L11.3887 12.6344V5.46767C11.3892 5.04205 11.5172 4.62634 11.7562 4.27415C11.9952 3.92188 12.3343 3.64931 12.7297 3.49161L12.7299 3.49154L17.8683 1.44003L17.8685 1.43996C18.0491 1.36778 18.2446 1.34094 18.4379 1.36177C18.6313 1.38261 18.8166 1.45049 18.9777 1.55949L19.2568 1.14697L18.9777 1.55949C19.1388 1.66848 19.2707 1.81527 19.3619 1.98702L19.8035 1.75245L19.3619 1.98702C19.4532 2.15878 19.5009 2.35026 19.5011 2.54475V8.59259V8.59304C19.5013 8.83148 19.4299 9.06449 19.2962 9.26191C19.1625 9.45932 18.9726 9.61203 18.7511 9.70028Z" stroke="#824EDC"/>
<path d="M1.25003 9.7005L1.25008 9.70052L8.61241 12.6346L8.61242 5.46837C8.61242 5.46818 8.61241 5.46799 8.61241 5.4678C8.61165 5.04227 8.48355 4.6267 8.24461 4.27457C8.00557 3.92231 7.66656 3.64968 7.27122 3.49178C7.27119 3.49177 7.27116 3.49176 7.27113 3.49175L2.1314 1.44039C2.13136 1.44037 2.13131 1.44035 2.13127 1.44034C1.95068 1.36841 1.75522 1.3418 1.56198 1.36282C1.36868 1.38384 1.18348 1.45187 1.02254 1.56098C0.861607 1.67009 0.729839 1.81694 0.63875 1.98872C0.547671 2.16048 0.500034 2.35192 0.5 2.54634L1.25003 9.7005ZM1.25003 9.7005C1.02871 9.61233 0.838934 9.4598 0.705227 9.26263C0.571531 9.06548 0.500042 8.83276 0.5 8.59455C0.5 8.59453 0.5 8.59451 0.5 8.59449M1.25003 9.7005L0.5 8.59449M0.5 8.59449V2.5464V8.59449Z" stroke="#824EDC"/>
<mask id="path-3-inside-1_19_5320" fill="white">
<path d="M0 23.7463L7.61343 20.1139C8.06228 19.9005 8.44138 19.5642 8.70671 19.144C8.97205 18.7238 9.11273 18.2369 9.11241 17.7399V13.3719L0 17.719V23.7463Z"/>
</mask>
<path d="M0 23.7463H-1V25.3314L0.430607 24.6488L0 23.7463ZM7.61343 20.1139L7.1841 19.2107L7.18283 19.2113L7.61343 20.1139ZM9.11241 17.7399H8.11241L8.11241 17.7405L9.11241 17.7399ZM9.11241 13.3719H10.1124V11.7869L8.68185 12.4694L9.11241 13.3719ZM0 17.719L-0.430563 16.8164L-1 17.0881V17.719H0ZM0.430607 24.6488L8.04404 21.0164L7.18283 19.2113L-0.430607 22.8438L0.430607 24.6488ZM8.04276 21.017C8.66248 20.7224 9.18591 20.2581 9.55226 19.6779L7.86117 18.6101C7.69685 18.8703 7.46207 19.0786 7.1841 19.2107L8.04276 21.017ZM9.55226 19.6779C9.91861 19.0977 10.1128 18.4255 10.1124 17.7393L8.11241 17.7405C8.11261 18.0483 8.02549 18.3498 7.86117 18.6101L9.55226 19.6779ZM10.1124 17.7399V13.3719H8.11241V17.7399H10.1124ZM8.68185 12.4694L-0.430563 16.8164L0.430563 18.6216L9.54298 14.2745L8.68185 12.4694ZM-1 17.719V23.7463H1V17.719H-1Z" fill="#824EDC" mask="url(#path-3-inside-1_19_5320)"/>
<path d="M19.5011 22.9538L12.6012 19.6626L12.6011 19.6626C12.238 19.4894 11.9314 19.217 11.7168 18.8767C11.5022 18.5365 11.3885 18.1424 11.3887 17.7402V17.7399V14.1645L19.5011 18.0345V22.9538Z" stroke="#824EDC"/>
</svg>
