<svg width="20" height="23" viewBox="0 0 20 23" fill="none" xmlns="http://www.w3.org/2000/svg">
<path fill-rule="evenodd" clip-rule="evenodd" d="M18.566 8.38087C18.6945 8.32967 18.8047 8.24109 18.8822 8.12657C18.9598 8.01206 19.0012 7.87689 19.0011 7.73858V1.6902C19.001 1.57738 18.9733 1.4663 18.9204 1.36667C18.8674 1.26704 18.7909 1.18189 18.6975 1.11867C18.604 1.05544 18.4965 1.01606 18.3844 1.00398C18.2722 0.991889 18.1588 1.00746 18.054 1.04933L12.9153 3.10098C12.6127 3.22167 12.3528 3.43039 12.1699 3.69998C11.9871 3.96942 11.8891 4.28745 11.8887 4.61307V11.042L18.566 8.38087ZM10.8887 12.517V4.61247C10.8892 4.08683 11.0473 3.57343 11.3424 3.13848C11.6376 2.70352 12.0563 2.36698 12.5445 2.17227L17.6829 0.120752C17.9393 0.0182638 18.2169 -0.0198539 18.4915 0.00973121C18.7661 0.0393163 19.0292 0.135704 19.2579 0.290467C19.4866 0.445231 19.6739 0.65366 19.8035 0.897534C19.933 1.14141 20.0009 1.4133 20.0011 1.68945V7.73767C20.0014 8.07623 19.9 8.40709 19.7102 8.6874C19.5203 8.96771 19.2506 9.18455 18.9361 9.30986L10.8887 12.517Z" fill="#824EDC"/>
<path fill-rule="evenodd" clip-rule="evenodd" d="M12.3859 19.259L20.0011 22.8914V16.8641L10.8887 12.517V16.885C10.8884 17.3817 11.0289 17.8684 11.2939 18.2885C11.5589 18.7087 11.9375 19.0452 12.3859 19.259ZM11.8887 14.102V16.885C11.8885 17.1927 11.9756 17.4948 12.1397 17.7551C12.3039 18.0154 12.5385 18.2239 12.8163 18.3563L19.0011 21.3064V17.495L11.8887 14.102Z" fill="#824EDC"/>
<path fill-rule="evenodd" clip-rule="evenodd" d="M1.43594 8.38087C1.30745 8.32967 1.19729 8.24109 1.11972 8.12657C1.04215 8.01206 1.00074 7.87689 1.00087 7.73858V1.6902C1.00095 1.57738 1.02867 1.4663 1.0816 1.36667C1.13452 1.26704 1.21105 1.18189 1.30448 1.11867C1.39791 1.05544 1.50541 1.01606 1.61758 1.00398C1.72975 0.991889 1.84317 1.00746 1.94793 1.04933L7.08664 3.10098C7.38925 3.22167 7.64911 3.43039 7.83204 3.69998C8.01488 3.96942 8.11283 4.28745 8.11328 4.61307V11.042L1.43594 8.38087ZM9.11328 12.517V4.61247C9.11271 4.08683 8.95466 3.57343 8.65951 3.13848C8.36437 2.70352 7.94567 2.36698 7.45743 2.17227L2.31906 0.120752C2.06263 0.0182638 1.78501 -0.0198539 1.51045 0.00973121C1.23589 0.0393163 0.972753 0.135704 0.744046 0.290467C0.515339 0.445231 0.328023 0.65366 0.198471 0.897534C0.0689184 1.14141 0.00107397 1.4133 0.000867976 1.68945V7.73767C0.000561847 8.07623 0.101909 8.40709 0.291784 8.6874C0.481661 8.96771 0.75132 9.18455 1.06584 9.30986L9.11328 12.517Z" fill="#824EDC"/>
<path fill-rule="evenodd" clip-rule="evenodd" d="M7.61604 19.259L0.00086689 22.8914V16.8641L9.11328 12.517V16.885C9.11354 17.3817 8.97304 17.8684 8.70805 18.2885C8.44306 18.7087 8.06443 19.0452 7.61604 19.259ZM8.11328 14.102V16.885C8.11344 17.1927 8.02639 17.4948 7.86222 17.7551C7.69805 18.0154 7.46347 18.2239 7.18567 18.3563L1.00087 21.3064V17.495L8.11328 14.102Z" fill="#824EDC"/>
</svg>
