<svg width="27" height="27" viewBox="0 0 27 27" fill="none" xmlns="http://www.w3.org/2000/svg">
<path d="M22.6337 1H4.36628C2.50713 1 1 2.50713 1 4.36628V22.6337C1 24.4929 2.50713 26 4.36628 26H22.6337C24.4929 26 26 24.4929 26 22.6337V4.36628C26 2.50713 24.4929 1 22.6337 1Z" stroke="#79767D" stroke-miterlimit="10"/>
<path d="M6.48234 21V20.016H8.85834V13.14L6.48234 14.916V13.716L8.46234 12.24H9.93834V20.016H11.8823V21H6.48234Z" fill="#79767D"/>
<path d="M18.0023 14.12C17.4663 14.12 16.9983 14.016 16.5983 13.808C16.2063 13.592 15.9023 13.292 15.6863 12.908C15.4703 12.516 15.3623 12.06 15.3623 11.54V7.7C15.3623 7.172 15.4703 6.716 15.6863 6.332C15.9023 5.948 16.2063 5.652 16.5983 5.444C16.9983 5.228 17.4663 5.12 18.0023 5.12C18.5463 5.12 19.0143 5.228 19.4063 5.444C19.7983 5.652 20.1023 5.948 20.3183 6.332C20.5343 6.716 20.6423 7.172 20.6423 7.7V11.54C20.6423 12.06 20.5343 12.516 20.3183 12.908C20.1023 13.292 19.7943 13.592 19.3943 13.808C19.0023 14.016 18.5383 14.12 18.0023 14.12ZM18.0023 13.196C18.4823 13.196 18.8663 13.044 19.1543 12.74C19.4503 12.428 19.5983 12.028 19.5983 11.54V7.7C19.5983 7.212 19.4503 6.816 19.1543 6.512C18.8663 6.2 18.4823 6.044 18.0023 6.044C17.5223 6.044 17.1343 6.2 16.8383 6.512C16.5503 6.816 16.4063 7.212 16.4063 7.7V11.54C16.4063 12.028 16.5503 12.428 16.8383 12.74C17.1343 13.044 17.5223 13.196 18.0023 13.196ZM18.0023 10.328C17.7863 10.328 17.6103 10.26 17.4743 10.124C17.3463 9.988 17.2823 9.808 17.2823 9.584C17.2823 9.368 17.3463 9.196 17.4743 9.068C17.6103 8.932 17.7863 8.864 18.0023 8.864C18.2183 8.864 18.3903 8.932 18.5183 9.068C18.6543 9.196 18.7223 9.368 18.7223 9.584C18.7223 9.808 18.6543 9.988 18.5183 10.124C18.3903 10.26 18.2183 10.328 18.0023 10.328Z" fill="#79767D"/>
</svg>
