<svg width="25" height="25" viewBox="0 0 25 25" fill="none" xmlns="http://www.w3.org/2000/svg">
<path d="M12.5 0C5.60729 0 0 5.67348 0 12.6476C0 18.5245 4.11458 23.7142 9.78333 24.9874C9.9375 25.02 10.0979 24.9831 10.2219 24.8841C10.3448 24.7839 10.4167 24.6332 10.4167 24.473V21.6062C10.4167 21.3153 10.1833 21.0793 9.89583 21.0793H8.85417C7.55417 21.0793 6.66979 19.8324 5.88854 18.7331C5.80833 18.6204 5.72917 18.5076 5.64896 18.398C6.01875 18.5961 6.33646 18.8354 6.65 19.0704C7.27396 19.5384 7.91979 20.0221 8.77812 20.0221C8.78125 20.0221 8.78542 20.0221 8.78854 20.0221C8.85521 20.0295 9.46354 20.0927 9.93437 19.6743C10.1552 19.4772 10.4167 19.1052 10.4167 18.4443V18.0765C10.4167 17.8404 10.2625 17.6339 10.0375 17.5696C7.14896 16.7422 5.20833 14.5521 5.20833 12.1206C5.20833 10.8558 5.72188 9.64903 6.69271 8.62985C6.84271 8.47281 6.88125 8.23988 6.79062 8.04174C6.40312 7.19646 6.48542 6.04658 6.94479 5.35624C7.55312 5.59549 8.34167 6.09823 8.85417 6.71374C8.99479 6.88343 9.22604 6.94456 9.43125 6.86868C11.3844 6.14355 13.6167 6.14355 15.5698 6.86868C15.7771 6.94456 16.0073 6.88238 16.1469 6.71374C16.6594 6.09823 17.4479 5.59549 18.0552 5.35519C18.5156 6.04553 18.5979 7.19646 18.2094 8.04174C18.1188 8.23988 18.1573 8.47281 18.3073 8.62985C19.2781 9.64903 19.7917 10.8558 19.7917 12.1206C19.7917 14.6733 17.6354 16.9593 14.549 17.6792C14.3917 17.7161 14.2594 17.8246 14.1927 17.9732C14.126 18.1218 14.1302 18.2936 14.2062 18.438C14.4635 18.9334 14.5833 19.6048 14.5833 20.5523V24.473C14.5833 24.6332 14.6552 24.7839 14.7781 24.8841C14.8719 24.9599 14.9865 25 15.1042 25C15.1417 25 15.1792 24.9958 15.2167 24.9874C20.8854 23.7142 25 18.5245 25 12.6476C25 5.67348 19.3927 0 12.5 0Z" fill="#79767D"/>
</svg>
