<svg width="25" height="28" viewBox="0 0 25 28" fill="none" xmlns="http://www.w3.org/2000/svg">
<path d="M6.90787 2.85087C1.33771 6.1184 0.986839 6.35963 0.416666 7.28068C0.0219301 7.93857 0 8.44295 0 14.364C0 19.1227 0.0657891 20.8113 0.285087 21.0745C0.701752 21.6227 10.5263 27.1929 10.921 27.1271C11.25 27.0613 11.2938 26.4473 11.3596 21.0526C11.4035 16.2499 11.3596 14.9561 11.1184 14.5833C10.9429 14.3201 8.94734 13.0921 6.68857 11.8201C4.42981 10.5482 2.4342 9.29822 2.25876 9.03506C1.86403 8.46489 2.0614 7.7412 2.6535 7.41226C3.00438 7.23682 4.03507 7.41226 7.43419 8.28945C9.82453 8.90348 12.0614 9.40786 12.4122 9.40786C13.3771 9.40786 23.3552 3.72806 23.3552 3.17981C23.3552 2.82894 22.6096 2.56578 18.092 1.38158C15.1973 0.614034 12.5877 0 12.2807 0C11.9736 0.0219298 9.56137 1.29386 6.90787 2.85087Z" fill="#6843AD"/>
<path d="M20.6583 6.57869L19.9346 7.03921L21.3162 7.85061C22.0837 8.28921 22.6978 8.79359 22.6978 8.96903C22.6978 9.1664 20.9434 10.3067 18.4434 11.7322C16.1189 13.048 14.0575 14.3418 13.904 14.5611C13.6408 14.912 13.5969 16.1401 13.6408 21.0085C13.7066 26.447 13.7504 27.0611 14.0794 27.1269C14.4741 27.1927 24.2987 21.6225 24.7372 21.0743C24.9346 20.8111 25.0004 19.1444 25.0004 14.4515C25.0004 9.7585 24.9346 8.09184 24.7372 7.82869C24.3864 7.41202 22.0837 6.11816 21.689 6.11816C21.5136 6.11816 21.053 6.33746 20.6583 6.57869Z" fill="#6843AD"/>
</svg>
